<svg width="120" height="120" viewBox="0 0 120 120" xmlns="http://www.w3.org/2000/svg" role="img" aria-labelledby="title desc">
  <title id="title">Don Bosco College Emblem</title>
  <desc id="desc">Circular emblem with cross and book icon</desc>
  <defs>
    <linearGradient id="grad" x1="0%" y1="0%" x2="100%" y2="100%">
      <stop offset="0%" stop-color="#1b5e9d"/>
      <stop offset="100%" stop-color="#284b7a"/>
    </linearGradient>
  </defs>
  <circle cx="60" cy="60" r="56" fill="url(#grad)" stroke="#ffffff" stroke-width="6"/>
  <path d="M60 28c-12 0-22 8-22 20 0 8 4 14 10 18-6 4-10 10-10 18 0 12 10 20 22 20s22-8 22-20c0-8-4-14-10-18 6-4 10-10 10-18 0-12-10-20-22-20zm0 12c6 0 10 4 10 8 0 5-4 8-10 8s-10-3-10-8c0-4 4-8 10-8zm0 52c-6 0-10-4-10-8 0-5 4-8 10-8s10 3 10 8c0 4-4 8-10 8z" fill="#ffffff" opacity="0.95"/>
  <rect x="56" y="18" width="8" height="84" fill="#ffffff" opacity="0.4"/>
</svg>

